<?xml version="1.0" standalone="no"?>
<!DOCTYPE svg PUBLIC "-//W3C//DTD SVG 20010904//EN"
 "http://www.w3.org/TR/2001/REC-SVG-20010904/DTD/svg10.dtd">
<svg version="1.0" xmlns="http://www.w3.org/2000/svg"
 width="16.000000pt" height="16.000000pt" viewBox="0 0 16.000000 16.000000"
 preserveAspectRatio="xMidYMid meet">
<metadata>
Created by potrace 1.11, written by Peter Selinger 2001-2013
</metadata>
<g transform="translate(0.000000,16.000000) scale(0.003125,-0.003125)"
fill="#000000" stroke="none">
<path d="M3045 4611 c-16 -9 -31 -19 -33 -23 -2 -5 -10 -8 -18 -8 -8 0 -14 -5
-14 -11 0 -5 -5 -7 -10 -4 -6 3 -13 -1 -16 -9 -3 -9 -10 -13 -15 -10 -5 3 -9
0 -9 -5 0 -6 -7 -11 -15 -11 -8 0 -15 -4 -15 -10 0 -5 -9 -10 -20 -10 -11 0
-20 -7 -20 -15 0 -8 -3 -14 -7 -14 -18 3 -31 -2 -51 -21 -12 -12 -22 -18 -22
-14 0 4 -11 -3 -25 -16 -14 -13 -25 -20 -25 -15 0 5 -7 0 -16 -11 -8 -10 -12
-12 -8 -4 5 11 4 12 -5 4 -10 -9 -8 -18 7 -43 10 -17 22 -28 25 -24 4 3 7 1 7
-6 0 -7 6 -19 13 -26 6 -8 23 -27 37 -44 14 -17 36 -43 50 -59 14 -17 32 -40
40 -52 8 -12 30 -37 49 -56 18 -19 29 -34 25 -34 -5 0 1 -10 13 -22 48 -49 82
-88 77 -88 -3 0 7 -12 21 -27 14 -15 25 -31 25 -35 0 -4 16 -22 35 -41 19 -19
35 -39 35 -45 0 -6 6 -15 13 -19 8 -4 25 -25 39 -45 13 -21 28 -35 31 -32 4 4
10 -2 14 -12 4 -10 16 -28 28 -40 17 -17 23 -18 33 -7 7 7 9 13 5 13 -4 0 0 5
10 11 9 6 15 14 12 20 -4 5 -1 9 5 9 6 0 15 11 22 25 6 13 15 22 19 19 5 -3 9
2 9 10 0 8 11 23 25 34 17 14 21 22 13 25 -8 3 -6 6 5 6 9 1 16 4 15 9 -2 4 7
18 19 31 12 13 20 29 16 34 -3 6 -1 7 5 3 7 -4 12 -3 12 2 0 5 11 21 25 36 13
14 22 26 19 26 -5 0 9 18 44 55 12 13 22 27 22 29 0 6 32 45 58 72 7 8 10 14
6 14 -4 0 5 11 20 25 15 14 23 25 19 25 -4 0 0 5 10 11 9 5 17 15 17 20 0 6
10 20 23 31 12 11 15 16 7 12 -13 -7 6 17 62 76 9 10 14 21 10 24 -3 3 0 6 6
6 7 0 12 12 12 26 0 14 -4 23 -8 20 -12 -7 -54 23 -47 35 3 5 -1 6 -9 3 -9 -3
-16 -1 -16 6 0 6 -4 9 -9 6 -4 -3 -21 5 -37 19 -15 13 -31 22 -36 19 -4 -3 -8
0 -8 5 0 6 -7 11 -16 11 -8 0 -12 5 -9 10 3 6 0 10 -9 10 -8 0 -28 11 -44 25
-17 14 -35 25 -41 25 -6 0 -11 5 -11 11 0 5 -4 7 -10 4 -5 -3 -10 -1 -10 4 0
6 -9 11 -19 11 -11 0 -21 6 -24 13 -3 9 -7 9 -19 -1 -12 -9 -18 -10 -23 -2 -5
8 -10 8 -20 0 -10 -8 -15 -8 -20 0 -5 8 -10 8 -20 0 -9 -8 -15 -8 -20 0 -4 7
-13 7 -27 -1 -16 -8 -19 -8 -13 1 6 9 3 9 -13 1 -15 -8 -21 -8 -24 1 -3 8 -10
8 -27 -2 -15 -7 -21 -8 -17 -1 4 6 4 11 1 11 -4 0 -16 -5 -27 -11 -16 -8 -19
-8 -13 1 6 9 3 9 -13 1 -15 -8 -21 -8 -24 1 -3 8 -10 8 -27 -2 -15 -7 -21 -8
-17 -1 9 13 -4 14 -23 2 -8 -5 -22 -6 -30 -2 -10 5 -28 1 -46 -8z"/>
<path d="M1606 3493 c-3 -4 -14 -7 -24 -8 -9 -1 -44 -6 -77 -10 -33 -5 -64 -9
-70 -10 -5 0 -12 -3 -15 -7 -3 -3 -19 -8 -35 -11 -17 -2 -38 -7 -47 -11 -9 -4
-22 -9 -30 -10 -18 -4 -47 -15 -83 -31 -47 -20 -94 -37 -100 -36 -3 1 -13 -5
-21 -14 -9 -8 -22 -15 -30 -15 -8 0 -14 -4 -14 -9 0 -7 -35 -22 -48 -20 -2 0
-12 -9 -22 -21 -10 -12 -22 -21 -27 -21 -4 1 -16 -6 -26 -14 -9 -8 -20 -15
-23 -15 -6 0 -27 -17 -54 -44 -11 -11 -20 -17 -20 -13 0 4 -45 -37 -100 -92
-55 -55 -100 -105 -100 -111 0 -6 -5 -8 -12 -4 -8 5 -9 2 -4 -12 4 -10 4 -15
0 -11 -7 7 -31 -19 -33 -36 0 -4 -12 -18 -26 -31 -14 -13 -25 -31 -25 -40 0
-11 -5 -14 -12 -10 -8 5 -9 2 -5 -10 4 -10 1 -19 -8 -22 -8 -4 -12 -10 -9 -15
3 -5 0 -9 -5 -9 -6 0 -11 -7 -11 -15 0 -8 -4 -15 -10 -15 -5 0 -9 -3 -9 -7 3
-20 -2 -34 -10 -29 -5 4 -8 -2 -7 -11 2 -10 0 -20 -3 -23 -10 -8 -61 -129 -61
-146 0 -8 -5 -14 -11 -14 -8 0 -7 -6 2 -17 10 -11 10 -14 2 -9 -12 6 -19 -18
-14 -46 0 -5 -3 -8 -7 -8 -5 0 -9 -6 -9 -12 0 -7 -4 -29 -8 -48 -5 -19 -8 -45
-8 -57 1 -15 -3 -20 -11 -16 -6 4 -4 -2 4 -12 9 -11 10 -16 3 -11 -13 7 -17
-27 -16 -116 1 -16 -3 -25 -9 -22 -6 4 -5 -2 1 -14 14 -26 14 -35 0 -26 -8 5
-8 1 0 -14 13 -25 14 -35 3 -28 -5 3 -7 -5 -6 -17 1 -12 3 -22 4 -22 1 0 3
-10 6 -23 3 -15 0 -21 -7 -16 -8 4 -8 1 -2 -12 5 -11 11 -37 12 -58 1 -21 7
-48 12 -59 8 -15 8 -18 -1 -12 -9 6 -9 3 -2 -11 5 -11 13 -39 16 -64 8 -59 11
-70 23 -100 6 -14 8 -31 5 -39 -3 -9 -1 -12 6 -7 11 6 18 -26 13 -56 0 -5 3
-8 8 -8 5 0 12 -14 16 -30 4 -16 11 -30 16 -30 5 0 9 -7 9 -15 0 -9 8 -30 17
-48 9 -18 16 -39 14 -47 -2 -8 1 -12 5 -7 4 4 17 -13 29 -38 12 -24 25 -42 29
-38 3 3 6 -4 6 -16 0 -12 4 -19 10 -16 5 3 10 -1 10 -9 0 -9 9 -25 20 -36 12
-12 18 -26 14 -32 -4 -6 -3 -9 2 -6 5 3 15 0 22 -8 7 -8 10 -14 7 -14 -4 0 9
-16 29 -35 20 -19 36 -37 36 -40 0 -10 54 -60 62 -57 4 1 8 -5 8 -14 0 -8 4
-13 9 -9 5 3 12 -4 16 -15 4 -11 11 -18 16 -15 5 4 9 -1 9 -9 0 -9 4 -15 8
-14 8 3 42 -21 100 -70 15 -12 35 -25 45 -28 9 -3 17 -10 17 -15 0 -6 4 -8 9
-5 5 3 14 -1 21 -9 7 -8 19 -15 26 -15 8 0 14 -5 14 -11 0 -5 5 -7 10 -4 6 3
10 3 10 -2 0 -9 48 -33 67 -33 7 0 13 -5 13 -11 0 -5 5 -7 10 -4 6 3 10 0 10
-7 0 -9 3 -9 10 2 8 13 10 12 10 -3 0 -10 4 -16 10 -12 5 3 17 1 27 -4 17 -9
52 -23 63 -25 3 -1 11 -5 18 -10 7 -4 16 -5 19 -2 3 3 11 2 17 -4 7 -5 25 -11
41 -14 29 -6 52 -11 98 -21 12 -3 34 -6 49 -7 15 0 25 -4 23 -8 -5 -9 27 -6
43 4 6 4 12 3 12 -3 0 -5 18 -8 40 -6 22 2 40 -1 40 -6 0 -6 8 -6 20 1 15 8
20 8 20 -2 0 -10 2 -10 9 1 6 9 11 10 15 2 5 -8 13 -8 29 0 16 9 22 9 25 1 2
-7 10 -9 20 -4 9 5 38 8 64 8 25 -1 45 1 43 5 -2 3 13 6 33 8 20 1 47 3 59 4
12 0 20 4 18 8 -4 6 18 9 68 10 9 0 17 4 17 10 0 5 3 8 8 8 4 -1 9 0 12 1 3 1
19 4 35 6 17 3 32 9 33 15 2 5 14 9 26 9 13 0 26 3 30 8 4 4 11 7 14 8 4 0 24
8 46 17 21 9 42 17 46 17 4 0 13 7 20 15 7 8 16 13 20 10 4 -3 13 2 20 10 7 8
21 15 32 15 10 0 16 5 13 10 -3 6 1 10 10 10 8 0 18 7 21 15 4 8 10 13 14 10
5 -3 15 2 23 10 9 8 20 15 26 15 5 0 15 8 20 18 6 9 11 13 11 9 0 -4 15 7 33
26 19 18 39 31 46 29 6 -2 10 2 9 10 -2 7 3 12 10 10 6 -1 11 4 10 10 -2 7 3
12 10 10 6 -1 12 5 12 13 0 8 7 15 15 15 8 0 15 7 15 16 0 8 3 13 8 11 7 -4
40 26 45 41 1 4 6 6 10 4 5 -1 6 1 3 6 -3 5 13 28 35 51 23 23 38 45 35 48 -3
3 6 15 20 25 14 11 23 23 20 25 -3 3 0 11 7 19 31 34 37 44 37 59 0 8 4 15 8
15 5 0 14 16 22 35 8 19 18 35 22 35 5 0 7 4 3 9 -3 5 -1 12 5 16 5 3 10 15
10 26 0 10 5 19 11 19 6 0 9 7 5 15 -3 8 -1 15 4 15 6 0 10 7 10 15 0 8 6 15
13 15 8 0 7 4 -3 10 -10 6 -11 10 -2 10 6 0 12 11 12 25 0 14 5 25 12 25 6 0
9 3 6 6 -4 3 -2 20 4 37 5 18 10 40 10 50 -1 9 3 15 7 13 7 -4 13 42 15 106 0
15 4 24 8 22 4 -3 8 5 8 18 0 13 1 89 3 171 1 81 0 147 -3 147 -4 0 -5 14 -4
30 1 17 -2 33 -7 36 -5 3 -4 14 2 26 8 15 8 19 0 14 -9 -6 -17 44 -12 77 0 4
-3 7 -8 7 -5 0 -8 11 -6 25 1 14 -2 25 -6 25 -5 0 -9 10 -9 23 0 13 -6 29 -12
36 -11 11 -10 12 2 6 12 -6 13 -5 3 6 -7 7 -13 21 -13 32 0 10 -4 15 -10 12
-6 -4 -10 6 -10 22 0 16 -5 34 -12 41 -7 7 -8 12 -2 12 5 0 3 4 -4 9 -7 4 -15
14 -16 22 -7 29 -31 79 -38 79 -4 0 -8 9 -8 20 0 11 -3 20 -8 20 -4 0 -16 17
-27 38 -11 20 -24 42 -30 49 -5 6 -21 28 -35 47 -23 32 -51 53 -34 24 5 -8 2
-9 -9 -5 -9 3 -23 0 -31 -8 -7 -8 -16 -11 -20 -8 -3 4 -6 1 -6 -5 0 -7 -9 -12
-21 -12 -11 0 -18 -4 -14 -9 3 -5 -4 -13 -16 -16 -21 -7 -52 -30 -96 -72 -13
-12 -23 -19 -23 -15 0 4 -8 -5 -18 -21 -10 -15 -22 -24 -27 -20 -4 5 0 -8 10
-27 10 -19 23 -38 29 -42 6 -4 7 -8 3 -8 -4 0 1 -10 13 -22 11 -12 20 -28 20
-35 0 -7 4 -13 10 -13 5 0 12 -11 16 -25 3 -13 12 -29 19 -35 8 -6 11 -18 8
-26 -3 -8 0 -14 6 -14 6 0 10 -3 9 -7 -1 -5 3 -18 10 -29 6 -12 8 -24 5 -28
-3 -3 -2 -6 4 -6 6 0 13 -12 16 -27 3 -16 8 -41 12 -58 4 -16 8 -36 8 -42 0
-7 3 -13 7 -13 4 0 6 -16 5 -36 -1 -19 2 -37 6 -39 4 -3 8 -68 8 -146 1 -77
-2 -139 -6 -136 -4 3 -8 -18 -8 -46 1 -29 -6 -62 -13 -74 -8 -13 -11 -23 -7
-23 4 0 2 -7 -5 -15 -10 -12 -10 -15 1 -15 11 0 12 -2 1 -9 -7 -4 -14 -14 -15
-22 -2 -8 -6 -20 -10 -26 -5 -7 -5 -17 -2 -23 3 -5 1 -10 -4 -10 -6 0 -11 -7
-11 -16 0 -9 -5 -12 -12 -8 -7 4 -8 3 -4 -5 4 -6 -7 -37 -25 -69 -17 -31 -40
-71 -49 -89 -10 -18 -20 -29 -24 -26 -3 4 -6 -1 -6 -9 0 -9 -11 -26 -25 -39
-13 -13 -25 -28 -25 -32 0 -11 -30 -41 -30 -31 0 4 -11 -6 -23 -24 -13 -17
-27 -29 -31 -25 -4 4 -9 -3 -13 -15 -3 -12 -12 -22 -20 -22 -8 0 -11 -4 -8
-10 3 -5 -1 -10 -9 -10 -9 0 -16 -5 -16 -11 0 -5 -4 -8 -8 -5 -5 3 -15 -4 -22
-15 -8 -10 -20 -19 -27 -19 -7 0 -13 -4 -13 -9 0 -5 -11 -12 -25 -15 -14 -4
-23 -11 -20 -16 3 -6 -3 -10 -14 -10 -11 0 -27 -7 -35 -16 -9 -8 -16 -12 -16
-7 0 4 -7 -1 -16 -12 -8 -11 -17 -19 -19 -17 -13 6 -35 1 -30 -8 4 -6 3 -10
-2 -9 -17 4 -83 -14 -83 -22 0 -5 -13 -9 -30 -9 -16 0 -30 -4 -30 -9 0 -6 -9
-8 -20 -6 -11 2 -22 0 -25 -5 -3 -5 -14 -7 -25 -5 -11 2 -22 0 -25 -5 -3 -4
-16 -7 -30 -5 -14 1 -28 -2 -31 -7 -3 -5 -11 -4 -19 2 -9 8 -15 8 -20 0 -9
-14 -58 -13 -74 2 -11 10 -12 10 -7 1 5 -10 -9 -12 -58 -10 -35 1 -63 4 -61 7
2 3 -16 6 -41 5 -24 0 -44 4 -44 8 0 5 -7 7 -15 4 -8 -4 -17 -2 -20 3 -3 4
-16 7 -30 5 -14 -1 -25 2 -25 6 0 5 -8 9 -18 9 -10 0 -24 6 -31 13 -11 9 -12
9 -7 0 5 -9 -2 -8 -21 2 -15 9 -39 20 -53 25 -14 6 -32 14 -40 18 -22 13 -82
44 -107 56 -13 6 -23 14 -23 19 0 4 -7 7 -15 7 -8 0 -15 5 -15 10 0 6 -8 14
-17 17 -28 10 -63 40 -56 47 3 3 1 6 -6 6 -17 0 -145 130 -129 131 7 0 3 4
-10 10 -13 5 -20 13 -17 19 3 5 1 10 -4 10 -6 0 -11 8 -11 18 0 14 -2 15 -10
2 -8 -12 -10 -11 -10 8 0 12 -3 22 -7 22 -9 0 -43 57 -43 72 0 5 -7 16 -15 24
-8 9 -15 24 -15 35 0 11 -4 18 -9 15 -5 -4 -12 12 -16 34 -4 22 -11 40 -16 40
-6 0 -7 5 -4 10 3 6 2 10 -3 10 -6 0 -8 9 -5 20 3 11 0 20 -6 20 -6 0 -11 13
-11 28 0 15 -5 33 -12 40 -9 9 -9 12 1 12 10 0 10 4 3 13 -5 6 -11 28 -13 47
-2 19 -8 41 -13 49 -9 11 -8 13 2 7 11 -7 12 -4 5 10 -9 20 -8 178 2 254 4 25
7 53 6 63 0 9 4 15 8 13 4 -3 8 10 9 29 1 20 6 45 13 56 6 11 13 33 15 47 3
15 11 30 17 34 7 4 9 8 5 8 -4 0 6 27 23 59 16 33 29 65 29 70 0 6 5 11 12 11
6 0 9 3 6 6 -4 3 2 14 13 25 10 10 19 26 19 35 0 8 5 12 10 9 6 -3 10 -1 10 5
0 6 6 18 13 25 29 34 37 45 37 55 0 6 4 9 8 6 4 -2 17 9 27 25 11 16 26 29 34
29 8 0 12 3 8 6 -7 7 56 64 71 64 5 0 12 7 16 15 3 8 13 15 21 15 9 0 13 5 10
10 -3 6 1 10 9 10 9 0 16 4 16 9 0 5 10 13 23 17 12 4 24 10 27 13 6 9 72 40
84 39 5 0 12 4 15 9 11 14 50 33 71 33 11 0 20 5 20 11 0 6 7 9 15 5 8 -3 15
-1 15 4 0 6 3 9 8 9 4 -1 9 0 12 1 3 1 14 3 25 5 11 2 34 6 50 10 17 4 38 7
48 8 9 1 17 4 17 7 0 3 19 6 43 5 23 0 66 2 95 6 29 3 55 3 57 1 2 -3 33 -6
67 -7 35 -1 63 -3 63 -4 0 -4 37 -10 73 -13 17 -1 32 -5 32 -8 0 -3 12 -7 27
-8 15 -1 29 -6 32 -11 3 -4 16 -7 28 -6 12 1 20 -2 17 -7 -3 -4 4 -8 16 -8 12
0 19 3 17 8 -3 4 1 13 9 20 8 7 14 10 14 6 0 -4 10 6 22 22 13 16 26 30 30 32
3 2 32 28 62 58 31 30 59 54 64 55 4 1 6 5 4 11 -1 5 2 7 8 3 5 -3 13 1 16 9
3 9 10 14 14 11 4 -2 15 4 25 15 16 18 16 20 2 20 -10 0 -17 5 -17 11 0 6 -7
9 -15 5 -8 -3 -15 -1 -15 4 0 6 -7 10 -16 10 -9 0 -12 5 -8 12 4 6 3 9 -2 5
-5 -3 -25 2 -44 10 -19 9 -46 18 -60 20 -13 2 -27 8 -30 14 -4 5 -19 10 -36
11 -16 1 -33 5 -39 9 -14 9 -75 23 -155 35 -25 3 -51 11 -59 18 -12 8 -13 8
-7 -1 4 -7 3 -13 -3 -13 -5 0 -13 5 -16 10 -5 8 -11 7 -21 -1 -10 -8 -14 -8
-14 0 0 6 -5 11 -11 11 -5 0 -7 -5 -3 -12 5 -7 3 -8 -7 -2 -20 13 -82 13 -98
0 -10 -8 -13 -8 -8 0 4 7 -12 10 -48 10 -34 0 -51 -4 -47 -11 3 -5 -1 -4 -10
2 -8 7 -18 10 -22 6z"/>
<path d="M3157 3494 c-7 -8 -32 -12 -80 -13 -18 -1 -26 -5 -21 -12 5 -8 1 -8
-14 0 -14 7 -23 8 -27 1 -3 -5 -19 -10 -36 -10 -16 0 -29 -4 -29 -9 0 -4 -11
-7 -25 -6 -14 2 -27 -1 -31 -6 -3 -5 -16 -9 -30 -9 -13 0 -24 -6 -24 -12 0 -9
-4 -8 -10 2 -5 8 -10 10 -10 3 0 -14 -58 -35 -73 -26 -6 3 -7 1 -3 -5 5 -8 -2
-12 -18 -12 -14 0 -26 -4 -26 -8 0 -5 -20 -17 -44 -27 -25 -10 -43 -21 -41
-25 2 -3 -6 -7 -17 -7 -12 -1 -25 -8 -29 -15 -5 -7 -9 -8 -9 -3 0 7 -3 7 -8 0
-9 -13 -79 -65 -87 -65 -4 0 -12 -6 -20 -12 -7 -7 -25 -22 -40 -33 -46 -35
-213 -205 -247 -251 -17 -24 -35 -44 -40 -44 -5 0 -6 -4 -3 -10 3 -5 2 -10 -2
-10 -8 0 -14 -9 -43 -66 -8 -16 -20 -35 -27 -42 -7 -7 -13 -22 -13 -33 0 -11
-4 -17 -10 -14 -5 3 -10 -3 -10 -14 0 -12 -4 -21 -10 -21 -5 0 -10 -7 -10 -15
0 -8 -11 -38 -24 -65 -13 -28 -19 -47 -13 -43 7 3 4 -2 -5 -13 -10 -11 -18
-34 -20 -52 -1 -18 -6 -32 -10 -32 -4 0 -8 -14 -8 -31 0 -16 -3 -28 -7 -26 -5
3 -9 -11 -11 -31 -1 -19 -6 -40 -10 -46 -4 -6 -7 -35 -7 -63 0 -29 -3 -53 -7
-53 -3 0 -4 -73 -2 -162 5 -207 7 -238 17 -238 4 0 6 -3 6 -7 -4 -25 2 -73 9
-70 4 3 8 -11 10 -31 1 -20 7 -39 13 -43 8 -4 7 -8 -2 -12 -10 -4 -10 -6 -1
-6 6 -1 12 -12 12 -25 0 -14 6 -31 13 -38 6 -7 12 -19 13 -25 3 -38 5 -44 13
-39 4 3 7 -6 5 -19 -1 -14 1 -23 5 -20 5 2 14 -14 21 -35 7 -22 17 -40 22 -40
4 0 8 -11 8 -25 0 -16 6 -25 15 -25 8 0 15 -8 15 -18 0 -11 9 -27 20 -37 11
-10 17 -22 14 -26 -3 -5 0 -9 5 -9 6 0 11 -7 11 -15 0 -8 4 -15 8 -15 5 0 14
-10 21 -23 7 -13 21 -23 32 -24 11 -1 17 2 14 8 -4 5 6 9 22 9 22 0 25 2 13
10 -12 8 -11 10 6 10 12 0 27 7 34 15 7 8 18 15 25 15 6 0 20 9 30 20 10 11
20 18 22 16 8 -8 113 102 113 119 0 10 -3 15 -6 12 -10 -10 -65 83 -58 95 4 6
3 8 -3 5 -5 -4 -16 6 -24 21 -8 15 -18 30 -24 34 -5 4 -6 8 -1 8 5 0 3 7 -4
15 -7 8 -9 15 -6 15 4 0 0 7 -8 16 -9 8 -14 19 -11 24 3 5 1 11 -5 15 -6 4 -8
11 -5 16 4 5 1 9 -5 9 -7 0 -10 7 -6 15 3 8 1 15 -5 15 -6 0 -8 4 -4 9 3 5 1
12 -4 15 -5 4 -8 14 -7 24 2 9 -1 20 -6 23 -5 3 -9 22 -10 42 -1 20 -6 37 -11
37 -5 0 -3 8 4 17 10 11 10 14 2 9 -10 -5 -13 9 -13 63 0 38 -5 73 -10 76 -6
4 -7 12 -3 18 10 16 10 16 12 103 0 41 4 73 9 71 4 -3 8 7 8 21 2 45 14 95 27
111 9 12 9 13 0 7 -7 -4 -13 -2 -13 3 0 6 3 11 8 11 4 0 12 11 19 25 6 14 7
23 3 20 -5 -3 2 16 16 42 13 27 24 52 24 56 0 5 9 22 21 38 11 16 18 29 14 29
-3 0 3 10 15 22 11 12 20 28 20 35 0 7 5 13 10 13 6 0 10 7 10 15 0 8 4 15 9
15 5 0 13 9 16 20 4 11 11 18 16 15 5 -4 9 -1 9 5 0 14 40 67 41 54 0 -5 4 1
9 14 5 12 17 22 26 22 10 0 15 3 11 6 -6 6 21 39 32 39 6 0 48 35 77 63 7 6
17 12 23 12 6 0 11 5 11 11 0 5 5 7 10 4 6 -3 10 -1 10 5 0 10 48 35 63 32 4
-1 7 2 7 8 0 5 7 10 15 10 8 0 15 4 15 10 0 5 7 6 17 3 11 -4 14 -3 9 5 -4 7
-1 12 7 12 7 0 41 11 75 25 34 14 73 25 87 25 14 0 25 6 25 13 0 8 4 7 10 -3
6 -10 10 -11 10 -2 0 7 14 12 36 12 23 0 33 4 28 11 -5 8 -1 8 14 0 12 -6 23
-7 26 -2 8 12 255 12 279 0 11 -6 17 -7 14 -2 -4 5 0 10 8 10 8 0 12 -4 9 -9
-4 -7 45 -13 70 -9 4 1 14 -3 21 -9 6 -5 24 -11 39 -12 14 -1 26 -6 26 -11 0
-4 5 -5 10 -2 6 3 10 0 10 -7 0 -9 3 -9 10 2 6 10 10 11 10 3 0 -7 6 -13 14
-13 8 0 34 -11 57 -25 24 -14 52 -25 62 -25 9 0 17 -4 17 -10 0 -5 6 -10 14
-10 8 0 16 -3 18 -7 2 -5 23 -21 48 -38 25 -16 50 -34 56 -40 6 -5 21 -16 32
-24 12 -8 18 -19 15 -24 -3 -6 -2 -7 4 -4 11 7 109 -93 105 -105 -1 -5 5 -8
13 -8 14 0 20 -12 16 -33 -1 -5 3 -6 9 -2 5 3 10 2 10 -3 0 -5 9 -19 20 -32
11 -12 17 -27 13 -33 -3 -6 -1 -7 5 -3 7 4 12 2 12 -3 0 -22 2 -26 16 -34 8
-5 12 -12 9 -18 -4 -5 -2 -9 3 -9 6 0 13 -11 16 -25 4 -14 11 -23 15 -20 5 3
8 -3 7 -12 -2 -10 1 -21 6 -24 5 -3 11 -12 12 -20 14 -64 20 -79 29 -79 6 0 8
-3 4 -6 -3 -3 1 -23 8 -44 7 -21 11 -41 8 -43 -3 -3 -1 -12 3 -19 11 -17 14
-33 15 -87 1 -28 5 -38 10 -30 6 10 9 10 9 2 0 -6 -5 -15 -10 -18 -8 -5 -8
-11 0 -20 8 -9 8 -15 0 -20 -6 -3 -8 -10 -6 -14 9 -14 15 -111 8 -111 -4 0 -9
-26 -10 -57 -1 -33 -7 -60 -14 -65 -10 -6 -9 -8 2 -8 13 0 13 -1 0 -10 -8 -5
-12 -10 -8 -10 4 0 2 -15 -3 -32 -6 -18 -12 -40 -13 -48 -1 -8 -5 -23 -9 -32
-14 -35 -20 -53 -21 -58 -1 -3 -7 -15 -14 -27 -7 -13 -9 -23 -5 -23 4 0 2 -5
-5 -12 -7 -7 -12 -21 -12 -32 0 -16 -2 -18 -9 -7 -7 10 -11 5 -16 -18 -3 -17
-11 -31 -16 -31 -6 0 -7 -5 -4 -10 3 -6 2 -10 -2 -10 -5 0 -17 -16 -27 -35
-11 -19 -24 -35 -29 -35 -6 0 -8 -3 -4 -6 8 -9 -16 -33 -27 -26 -5 3 -7 1 -3
-4 3 -5 -1 -18 -9 -29 -8 -10 -14 -15 -14 -11 0 4 -15 -10 -34 -33 -18 -22
-36 -37 -40 -34 -3 4 -6 -1 -6 -10 0 -10 -4 -17 -10 -17 -17 0 -49 -33 -43
-43 3 -6 1 -7 -5 -3 -6 3 -13 2 -17 -4 -4 -6 -12 -7 -18 -4 -7 4 -9 4 -5 -1 5
-5 -7 -17 -25 -28 -17 -11 -33 -18 -34 -16 -1 2 -9 -5 -17 -16 -9 -11 -16 -16
-16 -12 0 5 -12 0 -27 -11 -16 -10 -44 -25 -63 -32 -19 -7 -39 -17 -45 -22 -5
-4 -17 -8 -27 -8 -10 0 -18 -6 -18 -12 0 -10 -3 -9 -9 1 -5 8 -10 9 -12 3 -4
-10 -44 -23 -81 -25 -10 -1 -18 -5 -18 -8 0 -4 -12 -8 -27 -8 -35 0 -61 -5
-69 -14 -4 -3 -15 -2 -25 3 -11 7 -20 7 -24 1 -7 -13 -143 -13 -166 0 -11 6
-20 5 -24 -1 -4 -6 -13 -7 -23 -1 -9 4 -27 7 -39 6 -13 -1 -23 1 -23 5 0 3
-13 7 -29 8 -15 1 -55 11 -87 22 -67 22 -104 25 -104 9 0 -13 -50 -59 -63 -59
-5 0 -5 -4 -2 -10 3 -5 -1 -10 -10 -10 -9 0 -13 -5 -10 -10 3 -6 -2 -13 -12
-17 -9 -4 -27 -17 -39 -30 -11 -12 -24 -20 -27 -16 -4 3 -7 -1 -7 -11 0 -9 -4
-15 -9 -11 -5 3 -12 -4 -16 -15 -4 -11 -10 -18 -15 -15 -5 3 -15 -2 -23 -10
-9 -8 -20 -15 -26 -15 -6 0 -10 -5 -9 -12 3 -13 111 -68 134 -68 8 0 14 -4 14
-10 0 -5 12 -10 26 -10 14 0 23 -4 20 -8 -2 -4 9 -9 27 -10 17 -2 37 -8 44
-14 7 -6 13 -8 13 -4 0 3 11 1 25 -4 31 -12 68 -20 120 -26 21 -2 43 -10 47
-17 6 -9 8 -8 8 3 0 13 1 13 10 0 7 -11 10 -11 10 -2 0 9 5 10 18 4 9 -5 29
-8 45 -6 15 1 27 -2 27 -8 0 -6 7 -5 17 3 13 11 17 11 20 2 3 -9 10 -10 23 -3
13 7 20 6 23 -3 4 -9 6 -9 6 0 1 9 8 10 26 3 16 -6 26 -6 31 1 4 8 9 7 15 -2
5 -8 9 -9 9 -3 0 6 15 10 33 9 17 -1 38 2 45 8 8 6 12 5 12 -4 0 -9 3 -10 8
-4 7 11 25 14 84 18 21 1 38 5 38 10 0 4 3 6 8 6 26 -4 62 3 57 11 -3 5 0 7 8
5 7 -3 29 1 48 9 18 8 39 15 44 16 17 4 39 11 63 21 13 5 28 6 34 3 6 -4 8 -3
5 2 -3 6 9 16 26 23 57 23 112 53 125 69 10 13 12 13 12 1 0 -9 3 -10 8 -3 4
6 28 25 54 42 25 18 54 39 62 48 9 8 16 12 16 7 0 -4 7 1 15 11 8 11 15 17 15
14 0 -4 28 20 63 53 34 32 65 59 70 59 4 0 7 5 7 11 0 6 16 25 35 43 19 19 35
36 35 40 0 4 11 18 25 32 14 14 25 32 25 40 0 8 5 12 10 9 6 -3 10 1 10 9 0 9
4 16 9 16 5 0 12 11 15 25 4 14 11 25 16 25 6 0 10 7 10 15 0 8 5 15 11 15 5
0 7 5 4 10 -3 6 -2 10 3 10 4 0 14 16 22 35 8 19 18 35 24 35 5 0 6 3 3 6 -3
4 -1 16 5 28 7 11 11 24 10 29 -1 4 2 7 6 7 4 0 17 29 27 65 11 36 23 65 28
65 4 0 7 18 7 41 0 25 4 38 10 34 6 -4 9 -3 8 2 -1 4 2 28 6 53 5 25 10 52 10
60 1 8 5 21 10 29 7 11 6 12 -5 6 -12 -8 -12 -6 0 8 11 14 11 17 0 17 -9 0
-10 3 -3 8 6 4 12 29 13 57 1 27 8 56 14 64 7 9 8 12 1 8 -7 -4 -11 9 -11 41
0 92 -6 217 -12 227 -3 6 -6 19 -7 30 -4 38 -16 100 -22 110 -4 6 -8 19 -10
30 -5 28 -8 36 -19 65 -6 14 -9 28 -6 33 2 4 -1 7 -6 7 -6 0 -10 3 -9 8 1 8
-9 39 -23 64 -5 10 -9 25 -9 33 0 8 -5 15 -11 15 -5 0 -8 4 -5 9 4 5 3 11 -1
13 -5 1 -18 23 -31 48 -47 92 -63 117 -129 200 -13 15 -23 33 -23 40 0 6 -4 8
-10 5 -5 -3 -10 -2 -10 2 0 5 -33 41 -72 81 -97 98 -108 107 -119 105 -5 -2
-9 4 -9 13 0 8 -4 12 -10 9 -5 -3 -10 -1 -10 4 0 6 -7 11 -16 11 -8 0 -12 5
-9 10 3 6 -1 10 -10 10 -8 0 -18 7 -21 15 -4 8 -10 13 -14 10 -5 -3 -15 0 -22
7 -18 17 -48 36 -75 47 -11 6 -24 15 -28 21 -3 5 -11 8 -16 5 -5 -4 -9 -1 -9
5 0 7 -7 10 -15 6 -8 -3 -15 -2 -15 3 0 8 -40 27 -70 33 -8 2 -23 10 -33 19
-10 9 -27 15 -37 12 -10 -3 -21 0 -24 6 -4 6 -18 11 -32 11 -13 0 -24 4 -24 8
0 4 -9 9 -20 10 -11 1 -28 2 -37 3 -10 1 -22 5 -28 9 -5 4 -22 7 -37 6 -14 -1
-25 1 -23 5 2 3 -13 7 -33 8 -35 1 -77 8 -77 11 0 1 -8 3 -18 5 -10 2 -14 -1
-11 -7 4 -7 2 -8 -4 -4 -23 14 -56 15 -71 3 -8 -7 -12 -7 -8 -1 8 13 -91 13
-112 0 -10 -6 -12 -5 -7 2 5 8 -1 12 -14 12 -12 0 -18 -4 -15 -10 3 -5 2 -10
-4 -10 -5 0 -11 5 -13 11 -2 5 -7 7 -11 3z"/>
</g>
</svg>
